<svg width="128" height="128" viewBox="0 0 128 128" fill="none" xmlns="http://www.w3.org/2000/svg">
  <!-- background: TikTok-black rounded square -->
  <rect width="128" height="128" rx="28" fill="#010101"/>

  <!-- chat bubble: cyan/pink duotone offset -->
  <g>
    <path d="M34 30h56a14 14 0 0 1 14 14v34a14 14 0 0 1-14 14H58l-18 16v-16h-6a14 14 0 0 1-14-14V44a14 14 0 0 1 14-14z"
          fill="#25F4EE" transform="translate(-3 -3)"/>
    <path d="M34 30h56a14 14 0 0 1 14 14v34a14 14 0 0 1-14 14H58l-18 16v-16h-6a14 14 0 0 1-14-14V44a14 14 0 0 1 14-14z"
          fill="#FE2C55" transform="translate(3 3)"/>
    <path d="M34 30h56a14 14 0 0 1 14 14v34a14 14 0 0 1-14 14H58l-18 16v-16h-6a14 14 0 0 1-14-14V44a14 14 0 0 1 14-14z"
          fill="#FFFFFF"/>
  </g>

  <!-- wrench inside the bubble: signals a toolkit of helpers (Lucide wrench path) -->
  <g transform="translate(36 34) scale(2.18)" stroke="#010101" stroke-width="2.4" stroke-linecap="round" stroke-linejoin="round" fill="none">
    <path d="M14.7 6.3a1 1 0 0 0 0 1.4l1.6 1.6a1 1 0 0 0 1.4 0l3.77-3.77a6 6 0 0 1-7.94 7.94l-6.91 6.91a2.12 2.12 0 0 1-3-3l6.91-6.91a6 6 0 0 1 7.94-7.94l-3.76 3.76z"/>
  </g>
</svg>
